<svg id="visual" viewBox="0 0 960 540" width="960" height="540" xmlns="http://www.w3.org/2000/svg" xmlns:xlink="http://www.w3.org/1999/xlink" version="1.1"><rect x="0" y="0" width="960" height="540" fill="#001220"></rect><defs><linearGradient id="grad1_0" x1="43.8%" y1="0%" x2="100%" y2="100%"><stop offset="14.444444444444446%" stop-color="#001220" stop-opacity="1"></stop><stop offset="85.55555555555554%" stop-color="#001220" stop-opacity="1"></stop></linearGradient></defs><defs><linearGradient id="grad2_0" x1="0%" y1="0%" x2="56.3%" y2="100%"><stop offset="14.444444444444446%" stop-color="#001220" stop-opacity="1"></stop><stop offset="85.55555555555554%" stop-color="#001220" stop-opacity="1"></stop></linearGradient></defs><g transform="translate(960, 0)"><path d="M0 486C-66.5 481.6 -133 477.1 -186 449C-239 420.9 -278.6 369 -323.1 323.1C-367.7 277.3 -417.3 237.3 -445.3 184.5C-473.3 131.6 -479.6 65.8 -486 0L0 0Z" fill="#6600FF"></path></g><g transform="translate(0, 540)"><path d="M0 -486C49.6 -445 99.3 -404 160 -386.2C220.6 -368.4 292.3 -373.7 343.7 -343.7C395 -313.6 425.9 -248 446.2 -184.8C466.6 -121.7 476.3 -60.8 486 0L0 0Z" fill="#6600FF"></path></g></svg>