<svg id="visual" viewBox="0 0 900 600" width="900" height="600" xmlns="http://www.w3.org/2000/svg" xmlns:xlink="http://www.w3.org/1999/xlink" version="1.1"><rect x="0" y="0" width="900" height="600" fill="#001122"></rect><defs><linearGradient id="grad1_0" x1="33.3%" y1="100%" x2="100%" y2="0%"><stop offset="20%" stop-color="#6600ff" stop-opacity="1"></stop><stop offset="80%" stop-color="#6600ff" stop-opacity="1"></stop></linearGradient></defs><defs><linearGradient id="grad1_1" x1="33.3%" y1="100%" x2="100%" y2="0%"><stop offset="20%" stop-color="#6600ff" stop-opacity="1"></stop><stop offset="80%" stop-color="#0032bf" stop-opacity="1"></stop></linearGradient></defs><defs><linearGradient id="grad1_2" x1="33.3%" y1="100%" x2="100%" y2="0%"><stop offset="20%" stop-color="#002870" stop-opacity="1"></stop><stop offset="80%" stop-color="#0032bf" stop-opacity="1"></stop></linearGradient></defs><defs><linearGradient id="grad1_3" x1="33.3%" y1="100%" x2="100%" y2="0%"><stop offset="20%" stop-color="#002870" stop-opacity="1"></stop><stop offset="80%" stop-color="#001122" stop-opacity="1"></stop></linearGradient></defs><defs><linearGradient id="grad2_0" x1="0%" y1="100%" x2="66.7%" y2="0%"><stop offset="20%" stop-color="#6600ff" stop-opacity="1"></stop><stop offset="80%" stop-color="#6600ff" stop-opacity="1"></stop></linearGradient></defs><defs><linearGradient id="grad2_1" x1="0%" y1="100%" x2="66.7%" y2="0%"><stop offset="20%" stop-color="#0032bf" stop-opacity="1"></stop><stop offset="80%" stop-color="#6600ff" stop-opacity="1"></stop></linearGradient></defs><defs><linearGradient id="grad2_2" x1="0%" y1="100%" x2="66.7%" y2="0%"><stop offset="20%" stop-color="#0032bf" stop-opacity="1"></stop><stop offset="80%" stop-color="#002870" stop-opacity="1"></stop></linearGradient></defs><defs><linearGradient id="grad2_3" x1="0%" y1="100%" x2="66.7%" y2="0%"><stop offset="20%" stop-color="#001122" stop-opacity="1"></stop><stop offset="80%" stop-color="#002870" stop-opacity="1"></stop></linearGradient></defs><g transform="translate(900, 600)"><path d="M-405.6 0C-396.1 -32.8 -386.6 -65.6 -378.6 -101.5C-370.7 -137.3 -364.4 -176.3 -336.9 -194.5C-309.3 -212.7 -260.5 -210.1 -239 -239C-217.5 -267.9 -223.4 -328.4 -202.8 -351.3C-182.2 -374.2 -135.3 -359.4 -97.1 -362.2C-58.9 -365 -29.4 -385.3 0 -405.6L0 0Z" fill="#001d48"></path><path d="M-304.2 0C-297.1 -24.6 -289.9 -49.2 -284 -76.1C-278 -103 -273.3 -132.2 -252.7 -145.9C-232 -159.5 -195.4 -157.6 -179.3 -179.3C-163.1 -200.9 -167.5 -246.3 -152.1 -263.5C-136.7 -280.6 -101.4 -269.6 -72.8 -271.7C-44.1 -273.8 -22.1 -289 0 -304.2L0 0Z" fill="#002f99"></path><path d="M-202.8 0C-198 -16.4 -193.3 -32.8 -189.3 -50.7C-185.4 -68.7 -182.2 -88.2 -168.4 -97.3C-154.7 -106.3 -130.2 -105 -119.5 -119.5C-108.8 -134 -111.7 -164.2 -101.4 -175.6C-91.1 -187.1 -67.6 -179.7 -48.5 -181.1C-29.4 -182.5 -14.7 -192.7 0 -202.8L0 0Z" fill="#012ce2"></path><path d="M-101.4 0C-99 -8.2 -96.6 -16.4 -94.7 -25.4C-92.7 -34.3 -91.1 -44.1 -84.2 -48.6C-77.3 -53.2 -65.1 -52.5 -59.8 -59.8C-54.4 -67 -55.8 -82.1 -50.7 -87.8C-45.6 -93.5 -33.8 -89.9 -24.3 -90.6C-14.7 -91.3 -7.4 -96.3 0 -101.4L0 0Z" fill="#6600ff"></path></g><g transform="translate(0, 0)"><path d="M405.6 0C374.8 29.3 344 58.7 325.5 87.2C307 115.8 300.7 143.6 286.7 165.5C272.6 187.4 250.7 203.5 239 239C227.3 274.5 225.8 329.3 202.8 351.3C179.9 373.3 135.5 362.5 98.1 366.1C60.7 369.7 30.4 387.7 0 405.6L0 0Z" fill="#001d48"></path><path d="M304.2 0C281.1 22 258 44 244.1 65.4C230.2 86.8 225.5 107.7 215 124.1C204.4 140.6 188 152.7 179.3 179.3C170.5 205.8 169.3 247 152.1 263.5C134.9 280 101.6 271.9 73.6 274.6C45.5 277.3 22.8 290.7 0 304.2L0 0Z" fill="#002f99"></path><path d="M202.8 0C187.4 14.7 172 29.3 162.8 43.6C153.5 57.9 150.4 71.8 143.3 82.7C136.3 93.7 125.4 101.8 119.5 119.5C113.6 137.2 112.9 164.6 101.4 175.6C89.9 186.6 67.7 181.2 49 183C30.4 184.8 15.2 193.8 0 202.8L0 0Z" fill="#012ce2"></path><path d="M101.4 0C93.7 7.3 86 14.7 81.4 21.8C76.7 28.9 75.2 35.9 71.7 41.4C68.1 46.9 62.7 50.9 59.8 59.8C56.8 68.6 56.4 82.3 50.7 87.8C45 93.3 33.9 90.6 24.5 91.5C15.2 92.4 7.6 96.9 0 101.4L0 0Z" fill="#6600ff"></path></g></svg>