<svg id="visual" viewBox="0 0 900 600" width="900" height="600" xmlns="http://www.w3.org/2000/svg" xmlns:xlink="http://www.w3.org/1999/xlink" version="1.1"><rect x="0" y="0" width="900" height="600" fill="#001122"></rect><defs><linearGradient id="grad1_0" x1="33.3%" y1="0%" x2="100%" y2="100%"><stop offset="20%" stop-color="#6600ff" stop-opacity="1"></stop><stop offset="80%" stop-color="#6600ff" stop-opacity="1"></stop></linearGradient></defs><defs><linearGradient id="grad1_1" x1="33.3%" y1="0%" x2="100%" y2="100%"><stop offset="20%" stop-color="#6600ff" stop-opacity="1"></stop><stop offset="80%" stop-color="#002f99" stop-opacity="1"></stop></linearGradient></defs><defs><linearGradient id="grad1_2" x1="33.3%" y1="0%" x2="100%" y2="100%"><stop offset="20%" stop-color="#001122" stop-opacity="1"></stop><stop offset="80%" stop-color="#002f99" stop-opacity="1"></stop></linearGradient></defs><defs><linearGradient id="grad2_0" x1="0%" y1="0%" x2="66.7%" y2="100%"><stop offset="20%" stop-color="#6600ff" stop-opacity="1"></stop><stop offset="80%" stop-color="#6600ff" stop-opacity="1"></stop></linearGradient></defs><defs><linearGradient id="grad2_1" x1="0%" y1="0%" x2="66.7%" y2="100%"><stop offset="20%" stop-color="#002f99" stop-opacity="1"></stop><stop offset="80%" stop-color="#6600ff" stop-opacity="1"></stop></linearGradient></defs><defs><linearGradient id="grad2_2" x1="0%" y1="0%" x2="66.7%" y2="100%"><stop offset="20%" stop-color="#002f99" stop-opacity="1"></stop><stop offset="80%" stop-color="#001122" stop-opacity="1"></stop></linearGradient></defs><g transform="translate(900, 0)"><path d="M0 297.5C-25.9 296.6 -51.8 295.6 -77 287.3C-102.1 279 -126.5 263.2 -137.5 238.2C-148.5 213.1 -146.1 178.6 -162.6 162.6C-179.2 146.6 -214.7 149 -238.2 137.5C-261.7 126 -273.2 100.6 -281.1 75.3C-289 50.1 -293.2 25 -297.5 0L0 0Z" fill="#00235c"></path><path d="M0 198.3C-17.3 197.7 -34.6 197.1 -51.3 191.5C-68.1 186 -84.3 175.5 -91.7 158.8C-99 142 -97.4 119.1 -108.4 108.4C-119.5 97.7 -143.1 99.3 -158.8 91.7C-174.4 84 -182.1 67 -187.4 50.2C-192.6 33.4 -195.5 16.7 -198.3 0L0 0Z" fill="#0030d1"></path><path d="M0 99.2C-8.6 98.9 -17.3 98.5 -25.7 95.8C-34 93 -42.2 87.7 -45.8 79.4C-49.5 71 -48.7 59.5 -54.2 54.2C-59.7 48.9 -71.6 49.7 -79.4 45.8C-87.2 42 -91.1 33.5 -93.7 25.1C-96.3 16.7 -97.7 8.3 -99.2 0L0 0Z" fill="#6600ff"></path></g><g transform="translate(0, 600)"><path d="M0 -297.5C12.8 -249.5 25.6 -201.5 54.6 -203.8C83.6 -206.1 128.8 -258.5 148.7 -257.6C168.6 -256.7 163.2 -202.3 175.4 -175.4C187.6 -148.4 217.4 -148.9 235.6 -136C253.7 -123.1 260.2 -96.8 268.5 -72C276.9 -47.1 287.2 -23.5 297.5 0L0 0Z" fill="#00235c"></path><path d="M0 -198.3C8.5 -166.3 17.1 -134.4 36.4 -135.9C55.7 -137.4 85.9 -172.4 99.2 -171.7C112.4 -171.1 108.8 -134.9 116.9 -116.9C125 -98.9 144.9 -99.3 157 -90.7C169.1 -82.1 173.4 -64.6 179 -48C184.6 -31.4 191.5 -15.7 198.3 0L0 0Z" fill="#0030d1"></path><path d="M0 -99.2C4.3 -83.2 8.5 -67.2 18.2 -67.9C27.9 -68.7 42.9 -86.2 49.6 -85.9C56.2 -85.6 54.4 -67.4 58.5 -58.5C62.5 -49.5 72.5 -49.6 78.5 -45.3C84.6 -41 86.7 -32.3 89.5 -24C92.3 -15.7 95.7 -7.8 99.2 0L0 0Z" fill="#6600ff"></path></g></svg>